<svg xmlns="http://www.w3.org/2000/svg"  viewBox="0 0 512 512" width="48px" height="48px"><path fill="#EF4823" d="M347.4 439c-.6-3.7-1.3-7.5-2.4-11.1-.4-1.3-.8-2.7-1.4-3.9-.1-.1-.1-.2-.2-.3-1.2.5-2.7.6-4.3-.1-28.3-12.3-61.2-10.5-91.4-9.9-15.4.3-31 1-46.3 3.1-5.5.8-11 1-16.4 1.7-3.7.5-8.5.6-11.4 3.2-1.8 1.5-3.6 1.6-5.1.7 0 .1 0 .2 0 .3 0 8.8-.7 17.7-.7 26.5 0 4.9 0 9.8.5 14.7.2 1.5.3 3.1.8 4.5.2.5.3 1.1.5 1.6 0 0 0 0 0 0 1.1 1 1.7 2.1 1.8 3.2.5.1 1 .2 1.5.5 9.6 4.5 21 4.1 31.3 3.5 11.6-.6 23.1-1 34.6-1.2 25.5-.4 50.9-1.6 76.4-1.3 10.3.1 34.8 1.2 34.3-14.7C349.4 453.1 348.6 446 347.4 439zM264.4 248.5c.1-1 .4-1.9 1-2.9 3.7-5.5 8.6-10.3 12-16.1 3.5-6 4.2-12 3.2-18.9-1.8-12.1-9.6-21.4-22.3-22.2-12-.8-27 5.3-30.4 17.9-1.6 5.8-1.6 12-.2 17.9 1.7 6.7 3.2 13.5 9.7 17 1.2.7 2 1.6 2.5 2.6 1.5.4 2.8 1.5 3.3 3.5 6.6 26.5 6.4 53.6 4 80.7-2.1 25-4.9 49.7-5.2 74.8 2.2 0 4.5-.1 6.7-.1 8.1-.1 16.3-.2 24.5-.2-.1-.4-.2-.9-.2-1.4v-4.5c0-.8.2-1.6.4-2.3.8-21.8-6.4-43.3-9.5-64.7-3.6-25.5-1.5-51.4-1.5-77.1C262.6 250.8 263.3 249.4 264.4 248.5z"/><path fill="#010101" d="M180.2,487.4c7.2,1.3,14.6,1.3,21.9,1.1c13.2-0.4,26.4-1.1,39.7-1.3c16.1-0.2,32.1-0.9,48.2-1.2c11.3-0.2,22.5,0.2,33.8-0.1c6.1-0.1,12.5-1,18.3-2.9L180.2,487.4z"/><path fill="#010101" d="M357.6,433.7c-1.3-6.8-2.6-16-9.1-19.9c-1.8-1.1-3.5-1-4.9-0.2c-18.9-8.1-39.3-10.4-59.8-10.9c0.1-0.3,0.1-0.6,0.2-0.9c2.4-24.1-4.9-47.5-8.7-71.1c-4.1-25.6-1.9-51.7-1.7-77.6c0.1-0.1,0.1-0.1,0.2-0.2c4.7-6.9,10.7-13,14.7-20.5c4.4-8.2,4.3-17.9,2.4-26.8c-3.7-17.1-17-27.6-34.3-28.2c-17.5-0.6-34.1,10-39.4,26.8c-2.5,8.1-1.4,16.9,0.6,25c2.4,9.4,6.1,17.2,14.9,21.9c0.1,0.1,0.2,0.1,0.3,0.2c6.5,26.3,5.5,53.6,3.1,80.4c-2.2,23.9-4.6,47.6-4.9,71.6c-10.6,0.5-21.2,1.4-31.5,2.8c-6,0.8-12,1.1-18,1.9c-4.7,0.7-10.4,1.5-14.1,4.7c-1.8,1.6-2.3,3.7-1.9,5.6c-3.2-1.2-8,0.8-8,5.4c0,10-0.8,20.1-0.7,30.1c0,7.4-0.6,19.2,5.6,24.6c0.9,0.8,1.8,1.2,2.7,1.3c0.2,1.6,1.1,3.1,3,4c3.9,1.8,7.9,3,12,3.7l161.8-4.5c10.6-3.5,19-10.8,18.5-24.2C360.3,450.3,359.2,441.9,357.6,433.7z M237.5,241.3c-6.5-3.5-8-10.3-9.7-17c-1.5-5.9-1.4-12.1,0.2-17.9c3.4-12.6,18.4-18.7,30.4-17.9c12.7,0.8,20.5,10.1,22.3,22.2c1,6.9,0.3,12.9-3.2,18.9c-3.3,5.7-8.2,10.6-12,16.1c-0.6,0.9-1,1.9-1,2.9c-1.1,1-1.8,2.4-1.8,4.2c-0.1,25.7-2.2,51.5,1.5,77.1c3.1,21.4,10.3,42.9,9.5,64.7c-0.3,0.7-0.4,1.4-0.4,2.3v4.5c0,0.5,0.1,1,0.2,1.4c-8.2,0-16.4,0.1-24.5,0.2c-2.2,0-4.5,0.1-6.7,0.1c0.3-25.1,3.1-49.8,5.2-74.8c2.3-27.1,2.6-54.2-4-80.7c-0.5-2-1.8-3.2-3.3-3.5C239.5,242.9,238.8,242,237.5,241.3z M315.3,474.8c-25.5-0.3-50.9,0.9-76.4,1.3c-11.6,0.2-23.1,0.6-34.6,1.2c-10.3,0.5-21.7,1-31.3-3.5c-0.5-0.2-1-0.4-1.5-0.5c-0.2-1.1-0.7-2.3-1.8-3.2c0,0,0,0,0,0c-0.2-0.5-0.4-1-0.5-1.6c-0.5-1.5-0.6-3-0.8-4.5c-0.6-4.9-0.6-9.8-0.5-14.7c0-8.8,0.7-17.7,0.7-26.5c0-0.1,0-0.2,0-0.3c1.5,0.8,3.3,0.8,5.1-0.7c2.9-2.6,7.7-2.7,11.4-3.2c5.5-0.7,11-1,16.4-1.7c15.2-2.1,30.9-2.8,46.3-3.1c30.2-0.6,63.1-2.4,91.4,9.9c1.6,0.7,3,0.6,4.3,0.1c0.1,0.1,0.1,0.2,0.2,0.3c0.6,1.2,1,2.6,1.4,3.9c1.1,3.6,1.8,7.3,2.4,11.1c1.1,7,1.9,14,2.1,21.1C350.1,476,325.6,475,315.3,474.8z"/><path fill="#010101" d="M324,200.4c-3.4-18.5-14.7-33.6-30.4-43.5c-30.7-19.3-78.2-15.2-102.2,13.2c-15.1,17.9-17.9,42.8-11.1,64.6c2.5,8.1,7.1,16.3,11.8,23.4c4.7,7.1,11.7,13.9,20.9,13.2c7.1-0.5,6.2-11.5-0.8-11c-8.2,0.6-14-13.1-17-18.9c-5.3-10.3-8.2-21.5-7.5-33.2c1.4-23,16.6-40.2,37.6-47.8c32.7-11.8,75.9,1.3,86.7,36.8c7.1,23.5-2.3,46.2-18,63.5c-4.8,5.3,3.5,12.5,8.3,7.3C319.2,249,328.7,225.9,324,200.4z"/><path fill="#010101" d="M361.4,187.3c-5.4-22.4-16.9-44.1-35.2-58.6c-19.7-15.6-45.7-19-70.1-16.8c-48.7,4.3-99.1,37.7-107.9,88.4c-4,23.3,3.4,45.6,16,65c5.6,8.6,12.1,16.6,19.3,23.9c6.6,6.7,14.7,13,24.1,14.9c2.2,0.5,4.6,0.5,6.8,0.2c7-0.9,6.2-11.9-0.8-11c-8.5,1.1-16.3-6.1-21.9-11.5c-7.3-6.9-13.4-15.1-18.9-23.5c-13-19.9-18.2-42.4-11.6-65.5c6.9-24.1,26.5-43.4,47.9-55.4c22-12.3,48.6-17.1,73.5-14.2c19.6,2.3,36.5,10.9,49,26.4c12.1,14.9,18.5,33.8,21.6,52.5c6.7,40.7-16.6,77-52.3,95.1c-6.3,3.2-0.1,12.3,6.2,9.1c21.3-10.8,39-28,49.4-49.5C367.3,234.6,367.1,210.8,361.4,187.3z"/><path fill="#010101" d="M395.8,173.1c-6-21.9-15.7-43.3-29.5-61.4C352.8,94,335,80.2,313.5,73.9c-23-6.8-48.5-7-72.1-3.9c-48.6,6.5-95.3,30.4-122.9,71.8c-24.4,36.5-30.5,85-8.6,124c10.9,19.4,28.1,35.2,46.4,47.4c18.5,12.3,39.3,21.4,61.2,25.5c7,1.3,9.1-9.5,2.1-10.8c-24.5-4.5-47.6-15.8-67.2-30.9c-19.5-15.1-35.6-34.8-42.2-58.8c-13.4-48.4,14.6-99.7,53.5-127.3c39.7-28.1,93.8-38.1,141.1-27.8c45.7,10,70.9,55.7,81.7,97.7c3.8,14.6,6.1,29.9,4.9,45c-1.3,16.1-6.3,31.6-13.9,45.8c-15.1,28.6-41.5,51.1-72.2,61.1c-6.8,2.2-3.1,12.6,3.6,10.4c45.5-14.7,81-54.6,91.2-101.1C405.1,218.8,401.9,195.6,395.8,173.1z"/><path fill="#010101" d="M465,182.5c-4.4-42.7-22.4-84.2-53.6-114.1C378,36.4,332,23.9,286.7,23.5c-94.2-0.9-200.1,53.1-226,149.2c-13.2,49-0.3,100.2,31.6,139c15.7,19.2,34.6,35.9,55.8,48.8c20.1,12.2,44.2,20.7,68,17.2c7-1,6.2-12-0.8-11c-24.2,3.5-47.5-6.5-67.4-19.4c-20.4-13.1-38.4-30.8-52.9-50.2C64.1,256,58.6,201.9,78.4,154.7c18.9-45.1,58.8-78,102.6-97.7c43.4-19.5,93-27.3,140.1-19.8c22.4,3.6,43.9,11.1,63,23.4c17.9,11.5,32.6,27.6,43.9,45.5c23,36.4,30.9,81.6,25.4,124c-4.6,35.2-19.4,67.9-44.2,93.4c-25.6,26.5-59.7,42.1-95,51c-6.9,1.7-3.2,12.1,3.6,10.4c45.5-11.4,88.2-34.8,115.9-73.6C460.2,274.3,469.5,227.3,465,182.5z"/></svg>